<?xml version="1.0" encoding="utf-8"?>

<!DOCTYPE svg PUBLIC "-//W3C//DTD SVG 1.1//EN" "http://www.w3.org/Graphics/SVG/1.1/DTD/svg11.dtd">
<svg version="1.1" id="Layer_1" xmlns="http://www.w3.org/2000/svg" xmlns:xlink="http://www.w3.org/1999/xlink" x="0px" y="0px"
	 viewBox="0 0 1842 1920" enable-background="new 0 0 1842 1920" xml:space="preserve">
<path d="M697.8563,27.7768c0.0175-0.005,0.0351-0.01,0.0527-0.015c17.4156-4.9099,34.6194,4.1469,49.3374,12.4875
	c9.4044,5.3293,18.395,11.3455,27.3452,17.3953c0.3329,0.225,0.6657,0.4502,0.9985,0.6753c27.87,19.36,55.08,39.65,82.9,59.09
	c45.202,31.6972,90.5834,63.1375,135.8086,94.8017c44.0916,30.8705,88.161,61.7928,131.5156,93.699
	c43.2622,31.8383,85.9929,64.4257,127.6528,98.3355c40.7687,33.1841,80.2396,67.9815,118.3425,104.1937
	c37.1116,35.27,72.8944,71.9322,107.3842,109.7681c34.4966,37.8437,67.7002,76.8616,99.6689,116.8621
	c10.2283,12.798,20.3185,25.7044,30.3074,38.6899c48.45,63.34,93.2899,129.44,134.1799,197.9c10.79,18.02,21.2101,36.26,31.27,54.7
	c7.92,14.9,15.99,29.77,22.4401,45.39c1.4199,3.5699,3.0499,7.26,2.7,11.22c-3.86-1.3199-6.38-4.7-9.0601-7.5399
	c-11.21-12.92-21.2799-26.76-31.45-40.4901c-47.64-65.2899-92.6-132.4799-140.53-197.5699
	c-31.2628-42.6694-63.5322-84.9313-98.3243-124.7868c-33.6385-38.5342-69.2208-75.3714-106.561-110.3306
	c-38.8899-36.41-79.8158-70.64-121.3862-103.9203c-15.7062-12.5741-31.5387-24.9899-47.4584-37.2923
	c-43.057-33.2415-86.4194-66.0853-130.2382-98.2815c-44.7368-32.8708-89.4738-65.7416-134.2107-98.6124
	c-20.563-15.4223-41.714-30.0137-62.4412-45.2561c-28.98-21.08-57.95-42.19-87.41-62.59c-7.98-5.42-16.01-10.77-24.46-15.43
	c-2.34-1.35-4.99-2.02-7.67-2.18c0.17,4.66,3.14,8.44,5.39,12.31c8.05,12.51,16.78,24.57,24.97,36.99
	c22.83,34.19,43.6,70.2,56.46,109.42c9.88,29.95,16.41,61.93,12.09,93.51c-3.24,24.64-17.7,47.42-38.45,61.03
	c-3.22,2.05-6.27,4.36-9.58,6.25c-4.74,2.18-8.72,5.92-13.94,7.01c-3.27,1.7-6.54,3.46-10.1,4.47c-1.01,0.31-2,0.64-2.98,0.98
	c-1,0.31-1.99,0.64-2.97,0.98c-1.01,0.32-2.01,0.65-3,1c-1.01,0.33-2.02,0.65-3.01,0.98c-1.04,0.33-2.04,0.72-3.01,1.18
	c-0.47,0.07-1.39,0.2-1.86,0.27c-2.15,1.34-4.55,2.54-7.17,2.22c-4.65,2.31-9.85,3.25-14.9301,4.06c-4.85,1.59-9.93,2.55-15,3.02
	c-1.5699,0.74-3.3,0.82-4.98,0.97c-8.09,1.66-16.32,2.19-24.43,3.81c-4.38-0.23-8.52,1.51-12.93,1.03
	c-3.22,1.15-6.62,1.21-9.99,1.12c-3.43,1.07-7.02,1.14-10.57,0.78c-2.51,1.58-5.64,1.06-8.44,1.57
	c-40.81,3.91-81.78,9.59-120.8,22.63c-16.8309,5.5421-33.3286,12.0693-49.4942,19.32c-8.0844,3.6261-16.0867,7.4339-24.0136,11.3922
	c-33.3129,16.635-65.2299,36.2637-95.4323,58.0269c-14.6855,10.5715-28.9648,21.7122-42.8025,33.3711
	c-13.9416,11.7465-26.8812,24.6181-40.5974,36.6198c-27.26,26.13-52.82,54.03-76.31,83.6c-11.78,14.77-22.95,30.03-33.01,46.03
	c-10.1,16.32-18.92,33.65-24.04,52.22c-4.38,15.93-6.08,32.7-3.91,49.12c3.2,26.1,11.81,51.14,16.13,77.04
	c4.87,27.51,4.65,56.29-3.75,83.11c-7.36,24.22-18.49,47.11-30.66,69.25c-11.12,20.3-23.39,39.9399-35.64,59.5699
	c-8.55,13.89-17.51,27.6001-24.6,42.3101c-3.05,7.11-6.83,14.6799-5.29,22.64c1.01,2.58,3.45,4.5399,6.15,5.13
	c7.52,1.9099,15.28,0.4299,22.88-0.0601c15.28-1.49,30.57-4.46,45.98-3.2999c6.84,0.5499,14.45,3.13,17.7,9.7
	c3.53,7.53,1.57,16.15-0.53,23.8101c-4.56,14.63-12.18,28.0299-19.39,41.47c-10.78,19.5599-22.33,38.7-32.56,58.5599
	c-4.23,8.38-8.29,16.92-10.98,25.9401c-2.57,8.91-3.33,18.75,0.3,27.49c4.02,9.5499,11.31,17.1899,18.67,24.28
	c14.2,13.1,29.94,24.3999,46.06,35c34.62,22.45,71.16,41.9399,108.94,58.5c41.29,17.7699,84.81,31.97,129.9,35.1699
	c49.39,3.8401,98.81-6.12,145.5-21.74c19.91-6.45,39.23-14.5399,58.64-22.34c-22.31-29.0701-45.85-57.2-67.86-86.49
	c-3.39-5.09-7.92-9.78-9.3-15.89c4.05,0.41,7.23,3.17,10.46,5.39c12.09,9.09,23.23,19.38,34.1201,29.87
	c18.9,18.34,37.03,37.48,54.28,57.38c0.4464,0.515,12.1103-5.6307,13.3419-6.2174c4.5473-2.1659,9.0769-4.3689,13.5927-6.5999
	c18.3251-9.0532,36.5385-18.4185,54.1528-28.7754c8.8981-5.2314,18.712-9.9819,26.9726-16.1774
	c-0.5137,0.3212-7.2865-5.0406-8.1144-5.6084c-2.8247-1.9369-5.6565-3.8635-8.4941-5.7815
	c-5.676-3.8365-11.3752-7.6385-17.0878-11.4203c-11.3011-7.4812-22.6832-14.8708-34.0747-22.2379
	c-11.4061-7.3749-22.8106-14.752-34.2159-22.1279c-12.646-8.1783-25.9589-16.2393-38.0473-25.3677
	c-3.5461-2.6777-8.2584-5.4868-10.2057-9.6563c7.77,0.9099,14.71,4.9199,21.85,7.87
	c24.3558,11.3403,48.3354,23.4836,71.9404,36.3125c23.8149,12.9429,47.2752,26.6418,70.4583,40.6837
	c2.1306,1.2904,4.2937,2.5809,6.2313,4.1537c15.14-8.7599,29.13-19.4199,44.26-28.22c2.24-1.36,4.69-2.4299,7.37-2.38
	c-0.5,4.01-3.34,7.0901-5.59,10.28c-6.5,8.3101-13.71,16.0601-21.19,23.51c-2.48,2.5598-5.2598,4.8699-7.3595,7.7994
	c1.033-1.4282,26.5958,17.1512,28.2531,18.2825c12.5233,8.5483,24.7335,17.5537,37.0028,26.4598
	c18.1612,13.183,36.2153,26.647,53.5736,40.8783c20.5903,16.8811,41.0241,33.9182,60.8326,51.7184
	c19.5017,17.5244,38.5283,35.6006,57.2591,53.9478c19.0865,18.6954,37.8143,37.7571,56.1693,57.1711
	c18.2832,19.3383,36.4387,38.7855,53.9658,58.816c7.7449,8.8511,15.3877,17.7916,22.9264,26.819
	c3.587,4.2954,7.1409,8.6122,10.6223,12.9932c1.7666,2.2231,3.5189,4.4574,5.2551,6.7043c0.9095,1.177,1.8147,2.3575,2.7152,3.5415
	c0.4727,0.6216,2.4442,2.4989,2.4442,3.2386c2.99,4.6,7.1799,8.85,8.12,14.45c-6.1001-2.23-10.67-7.11-15.7001-11.0199
	c-28.2999-24.5801-55.24-50.65-82.6799-76.17c-54.54-51.22-109.16-102.4-165.78-151.3101
	c-49.3-42.5699-100.42-83.0699-153.53-120.7899c-32.69,27.08-69.04,49.74-107.79,67.08c49.1,59.72,90.51,125.35,127.99,192.86
	c15.4,28.1801,30.61,56.55,43.39,86.04c2.15,5.4399,4.82,10.8199,5.59,16.6899c-0.6,1.38-1.94-0.3999-2.61-0.7899
	c-5.05-5.41-9.14-11.62-13.41-17.63c-21.06-30.78-41.12-62.2201-61.68-93.3301c-39.14-59.2799-79.19-118.02-122.7-174.1899
	c-39.52,15.66-80.74,26.8099-122.41,35.04c-26.56,5.1299-53.39,8.97-80.38,10.7999c-43.88,3.1-89.17,0.55-130.53-15.6
	c-20.78-8.0601-39.92-19.88-57.28-33.79c-14.46-11.14-27.18-24.4099-42.14-34.9199c-12.6-8.9501-27.64-13.17-41.65-19.3201
	c-18.83-7.87-36.39-18.8199-51.68-32.33c-15.29-13.03-28.63-28.14-41.26-43.72c-11.78-14.8201-22.66-30.38-32.12-46.79
	c-9.32-16.13-17.68-33.27-20.92-51.76c-2.18-11.71-0.84-23.87,3.08-35.0601c6.11-16.98,16.7-31.7699,26.24-46.9299
	c21.5-32.47,38.62-67.67,52.91-103.84c9.5-24.01,17.63-48.5801,23.84-73.64c6.32-25.3,9.99-51.24,11.19-77.27
	c2.12-36.72,0.6-73.67,5.45-110.21c4.6884-37.5479,16.0492-74.3884,33.5775-107.9343
	c17.0791-30.5308,37.8717-58.3083,62.359-83.2973c13.4601-13.7438,27.7727-26.632,42.5434-38.9484
	c60.03-49.83,125.87-91.91,190.34-135.62c27.25-18.74,54.97-37.23,78.8-60.32c5.26-5.48,10.32-11.14,15.04-17.09l-1.66-0.03
	c0.43-0.04,1.29-0.13,1.72-0.17c19.06-24.85,27.33-55.8,33.02-86.08c-7.48-4.92-14.28-10.83-22.02-15.36
	c-17.1305-10.026-33.8387-20.6725-51.2144-30.3073c-35.1756-19.5047-71.3911-37.2164-107.6116-54.791
	c-27.5696-13.377-55.105-26.8617-83.4569-38.5183c-8.9823-3.693-29.4472-13.1071-34.1971,0.6865c-3.29,9.62-2.03,19.95-1.77,29.92
	c0.84,7.64,1.97,15.26,3.15,22.86c1.8451,10.5305,4.1069,20.9857,6.6831,31.3611c1.3844,5.5753,2.3875,11.241,3.911,16.7826
	c10.3224,37.5446,26.0754,73.5428,44.5089,107.7768c8.1126,15.0664,16.6131,29.937,25.522,44.5475
	c1.0149,1.6794,2.0334,3.3567,3.0549,5.032c3.22,5.61,6.97,10.96,9.65,16.86c-0.05,0.49-0.14,1.46-0.19,1.95
	c0.077-0.7544-4.035-4.2379-4.6703-4.9546c-1.724-1.9446-3.3459-3.9731-5.0137-5.9634c-3.4503-4.1174-6.3456-8.827-9.3884-13.2987
	c-6.5935-9.69-13.9482-19.2492-19.6979-29.4172c-5.9085-10.4486-12.1238-20.7039-17.8488-31.2639
	c-4.751-8.7639-9.477-17.7682-14.0822-26.696c-4.6876-9.0876-9.789-18.1205-13.9888-27.4435
	c-0.6316-1.402-1.2051-2.8353-1.8776-4.2284c-2.1924-4.5764-4.3759-9.1573-6.5464-13.7442
	c-4.3405-9.1726-8.6297-18.3698-12.8366-27.6045c-8.4137-18.4692-16.4994-37.0919-24.0022-55.951
	c-0.1127-0.2834-0.2253-0.5668-0.3378-0.8503c-2.3773-5.992-4.711-12.0013-7.0008-18.0274
	c-2.3711-6.2401-4.5088-12.5434-6.6285-18.877c-3.53-11.95-7.66-24.17-6.65-36.81c0.3-5.47,3.56-10.92,8.8501-12.83
	c7.4383-2.7598,15.9308-2.0891,23.5965-0.6994c18.6602,3.3829,37.4346,8.2113,55.5358,14.3436
	c9.0598,3.0693,17.8757,7.0352,26.924,9.9865c9.6745,3.1556,19.2982,6.5546,28.8472,10.0794
	c0.575,0.2122,1.1496,0.4254,1.7239,0.6395c18.9137,7.0543,37.5444,14.4508,56.2099,22.1846
	c37.8792,15.6948,75.4579,32.0562,113.0797,48.4064c16.5988,7.2137,33.2825,14.2299,49.8529,21.5095
	c6.2-45.53,10.9-91.25,16.88-136.81c2.3504-17.9071,5.895-35.6641,8.2465-53.5494c1.3207-10.0458,3.7577-19.9058,6.3883-29.6771
	c2.5121-9.331,4.6714-18.6881,8.5718-27.5469c4.4754-10.1632,9.8718-20.5263,18.7482-27.4911
	C690.7759,31.3791,694.2747,28.8021,697.8563,27.7768z"/>
<path d="M441.9557,886.4056c11.7426-0.3667,23.4993-0.3237,35.2419,0.1241c19.5386,0.7452,39.0892,2.4725,58.4705,5.0455
	c9.8591,1.3088,19.6865,2.8559,29.4707,4.6403c4.9919,0.9104,9.9726,1.8826,14.9405,2.9164
	c2.3845,0.4962,4.7662,1.0067,7.1447,1.5313c1.4905,0.3288,5.7626,2.1245,7.1259,1.6165
	c-11.9088,4.3986-26.644,7.6642-35.1199,17.8904c-8.12,9.87-12.65,22.01-19.21,32.87c-10.19,17.9-26.04,31.78-43,43.09
	c-14.18,9.36-29.43,17.21-45.56,22.61c-12.47,4.04-25.77,6.77-38.9,5.08c-9.73-1.15-18.97-5.56-26.05-12.31
	c-9.22-8.44-15.75-19.23-22.22-29.78c-10.12-16.55-20.47-33.07-33.17-47.78c-3.43-4.34-7.37-8.38-9.81-13.4001
	c-7.4639-15.9868,25.5749-22.0393,35.484-24.0985C384.8254,890.6241,413.3488,887.2991,441.9557,886.4056z"/>
<path d="M629.86,1326.66c3.36-2.11,7.41-0.49,11.04-0.12c26.174,5.0255,51.9248,12.7651,77.1201,21.3844
	c25.1723,8.6115,49.86,18.59,74.0512,29.6543c16.5656,7.5767,33.1326,15.491,49.0165,24.4257
	c22.9222,12.4033,45.2986,25.8151,67.0438,40.1821c22.3695,14.7795,44.0933,30.5636,65.3948,46.8386
	c11.5964,8.8601,23.1279,17.833,34.4236,27.0748c30.18,24.62,59.9999,49.8,87.61,77.3101c4.48,5.01,10.2,9.39,12.73,15.7899
	c-5.8501-1-10.4601-5.13-15.4501-8.0299c-31.5599-21.16-62.0699-43.8501-93.0599-65.8301C935,1489.22,869.89,1443.03,799.62,1405.5
	c-23.5289-12.5664-47.4354-24.4092-71.8267-35.1942c-12.4604-5.5095-24.9841-10.8757-37.5679-16.0973
	c-12.3384-5.1198-25.1091-9.5698-37.2028-15.181c-2.9784-1.382-6.054-2.5682-8.9925-4.0375
	C639.1,1332.6,633.99,1330.34,629.86,1326.66z"/>
</svg>
